<?xml version="1.0" standalone="no"?>
<!DOCTYPE svg PUBLIC "-//W3C//DTD SVG 20010904//EN"
 "http://www.w3.org/TR/2001/REC-SVG-20010904/DTD/svg10.dtd">
<svg version="1.0" xmlns="http://www.w3.org/2000/svg"
 width="160.000000pt" height="160.000000pt" viewBox="0 0 160.000000 160.000000"
 preserveAspectRatio="xMidYMid meet">
<metadata>
Created by potrace 1.16, written by Peter Selinger 2001-2019
</metadata>
<g transform="translate(0.000000,160.000000) scale(0.016000,-0.016000)"
fill="#000000" stroke="none">
<path d="M4853 7300 c-131 -34 -233 -102 -313 -209 -283 -376 -16 -911 453
-911 101 0 165 14 244 53 140 67 236 172 289 314 79 210 29 440 -130 599 -149
149 -347 205 -543 154z"/>
<path d="M4487 6164 c-195 -29 -378 -70 -434 -96 -87 -41 -125 -112 -168 -315
-19 -90 -39 -146 -89 -252 -92 -196 -119 -284 -120 -401 -1 -106 11 -143 66
-199 55 -57 93 -69 259 -86 190 -18 192 -19 186 -1 -3 7 -9 34 -12 60 l-7 46
106 0 c97 0 106 2 106 19 0 17 -11 20 -110 26 -102 7 -111 9 -115 29 -4 19
-105 843 -105 859 0 4 426 7 946 7 l946 0 -6 -37 c-3 -21 -26 -207 -51 -413
-25 -206 -47 -389 -50 -406 l-6 -32 -109 -7 c-99 -6 -110 -9 -110 -26 0 -17 9
-19 106 -19 l106 0 -7 -37 c-3 -21 -9 -48 -12 -60 -6 -28 -14 -28 187 -7 173
18 205 29 263 93 102 113 83 288 -64 599 -45 96 -65 154 -89 258 -48 214 -83
271 -193 313 -77 28 -265 66 -463 92 l-171 23 -53 -22 c-123 -51 -297 -55
-431 -8 -89 31 -97 31 -302 0z"/>
<path d="M4105 5783 c3 -16 23 -179 45 -363 22 -184 43 -352 46 -372 l6 -38
108 0 107 0 7 -37 c3 -21 6 -53 6 -70 l0 -33 -104 0 -103 0 6 -32 7 -33 754
-3 c803 -2 770 -4 770 46 0 21 -3 22 -100 22 l-100 0 0 48 c0 93 -2 91 119 94
l106 3 8 50 c5 28 27 206 51 398 l42 347 -893 0 -892 0 4 -27z"/>
<path d="M5565 4089 c-171 -25 -276 -104 -322 -243 -15 -43 -18 -106 -21 -421
-4 -388 1 -445 40 -538 27 -62 112 -139 183 -166 152 -57 386 -53 530 9 105
45 176 146 195 278 13 90 13 690 -1 771 -21 133 -101 238 -213 280 -99 37
-258 49 -391 30z m320 -138 c63 -28 100 -63 133 -126 l27 -50 0 -375 0 -375
-27 -50 c-59 -112 -140 -157 -294 -163 -116 -5 -196 13 -254 56 -47 35 -56 47
-88 112 l-27 55 0 360 0 360 33 68 c58 118 148 159 337 154 87 -3 120 -8 160
-26z"/>
<path d="M5560 3941 c-77 -25 -127 -69 -162 -146 -23 -49 -23 -56 -23 -400 l0
-350 28 -57 c52 -107 133 -148 291 -148 142 0 223 32 279 110 53 74 59 128 55
478 -5 353 -9 379 -72 444 -59 61 -95 72 -241 75 -71 1 -141 -1 -155 -6z m236
-140 c49 -22 80 -62 93 -122 14 -59 14 -515 0 -579 -21 -98 -79 -140 -192
-140 -80 0 -120 18 -159 71 -32 43 -38 94 -38 360 0 284 8 334 58 382 16 16
42 32 58 37 51 15 136 11 180 -9z"/>
<path d="M6820 4089 c-84 -14 -192 -70 -254 -131 -83 -83 -119 -202 -96 -314
18 -85 44 -131 116 -200 63 -61 100 -82 346 -198 97 -46 138 -90 138 -149 0
-59 -29 -101 -84 -122 -92 -35 -189 8 -247 110 -17 30 -35 57 -39 60 -5 3 -56
-36 -114 -85 -101 -87 -105 -92 -95 -118 28 -72 112 -163 188 -202 60 -30 184
-60 251 -60 230 0 390 124 435 337 28 131 14 216 -51 310 -62 90 -175 164
-419 273 -116 52 -158 109 -124 172 26 48 149 64 219 28 21 -11 62 -46 91 -79
l52 -60 81 56 c131 91 126 83 91 150 -93 178 -267 257 -485 222z m182 -129
c45 -13 125 -67 152 -103 34 -46 8 -42 -44 7 -67 63 -108 79 -200 80 -99 1
-170 -24 -224 -78 -81 -81 -87 -199 -14 -282 37 -42 89 -73 236 -141 210 -96
296 -171 323 -277 34 -137 -50 -296 -179 -340 -132 -45 -328 10 -398 113 -37
55 -17 56 34 2 69 -73 144 -104 252 -105 69 -1 93 3 125 21 90 48 136 121 143
229 4 64 2 77 -23 123 -39 70 -105 118 -287 208 -186 91 -236 127 -271 191
-52 96 -25 233 59 297 75 57 218 82 316 55z"/>
<path d="M1502 3393 l3 -688 128 -3 c70 -1 128 -1 129 0 1 2 5 176 8 387 l5
383 99 -368 c55 -203 103 -377 108 -386 7 -15 23 -18 98 -18 49 0 91 4 95 9 3
5 48 153 99 328 52 175 102 345 113 378 l18 60 5 -385 5 -385 125 0 125 0 3
688 2 687 -155 0 -154 0 -137 -417 c-75 -230 -139 -422 -142 -427 -3 -5 -62
182 -132 415 l-126 424 -162 3 -162 2 2 -687z m404 47 c116 -347 175 -508 179
-495 4 11 82 243 173 515 l167 495 63 3 62 3 0 -571 c0 -453 -3 -571 -12 -568
-10 4 -14 127 -16 562 l-2 557 -38 -3 -37 -3 -179 -533 c-103 -307 -183 -531
-189 -529 -6 2 -90 241 -187 533 l-177 529 -39 0 -39 0 -3 -557 c-1 -361 -6
-558 -12 -558 -7 0 -10 200 -10 570 l0 571 62 -3 61 -3 173 -515z"/>
<path d="M2955 4070 c-3 -5 64 -166 150 -357 l155 -348 0 -316 c0 -175 3 -324
6 -333 9 -24 269 -24 278 0 3 9 6 158 6 332 l0 317 150 348 c83 192 148 353
145 358 -4 5 -63 9 -133 9 l-127 0 -91 -182 -90 -181 -93 181 -93 182 -129 0
c-71 0 -130 -4 -134 -10z m314 -365 c69 -141 128 -258 131 -260 4 -3 63 112
131 255 113 237 139 284 139 248 0 -7 -59 -134 -130 -282 l-130 -269 0 -294
c0 -194 -3 -292 -10 -288 -6 4 -10 114 -10 297 l0 291 -134 273 c-121 246
-136 284 -117 284 3 0 62 -115 130 -255z"/>
<path d="M4135 4068 c-3 -7 -4 -317 -3 -688 l3 -675 129 -3 c97 -2 131 1 138
10 4 7 8 90 8 185 l0 171 143 4 c138 3 145 4 209 36 76 37 120 82 157 162 25
53 26 62 29 283 3 208 1 235 -17 297 -27 89 -86 156 -173 196 l-63 29 -277 3
c-225 3 -279 1 -283 -10z m590 -143 c35 -21 56 -45 74 -80 25 -48 26 -54 26
-260 0 -236 -8 -275 -68 -333 -55 -53 -102 -64 -299 -70 l-178 -4 0 -179 c0
-113 -4 -179 -10 -179 -7 0 -10 197 -10 571 l0 570 208 -3 209 -3 48 -30z"/>
<path d="M4285 3929 c-3 -8 -4 -172 -3 -364 l3 -350 170 0 c188 0 225 8 281
57 53 47 64 100 64 313 0 236 -15 281 -108 326 -43 21 -64 24 -224 27 -144 3
-179 2 -183 -9z m343 -156 c39 -29 51 -74 51 -198 1 -96 -2 -117 -21 -155 -20
-38 -31 -48 -73 -62 -27 -9 -78 -17 -112 -18 l-63 0 0 231 0 232 96 -5 c74 -4
102 -10 122 -25z"/>
<path d="M7594 4067 c-2 -7 -3 -65 -2 -128 l3 -114 158 -3 157 -3 0 -559 0
-560 134 0 c113 0 135 2 140 16 3 9 6 260 6 560 l0 543 153 3 152 3 0 125 0
125 -448 3 c-364 2 -449 0 -453 -11z m776 -117 c0 -6 -58 -10 -155 -10 l-155
0 0 -560 c0 -491 -2 -560 -15 -560 -13 0 -15 69 -15 560 l0 560 -160 0 c-100
0 -160 4 -160 10 0 6 117 10 330 10 213 0 330 -4 330 -10z"/>
</g>
</svg>
